 <svg width="60" height="60" viewBox="0 0 60 60" fill="none" xmlns="http://www.w3.org/2000/svg">
    <rect width="60" height="60" rx="5" fill="#005FFF" />
    <svg x="20" y="15" width="21" height="30" viewBox="0 0 21 30" fill="none"
        xmlns="http://www.w3.org/2000/svg">
        <path
            d="M10.7454 0.922867C5.35484 0.922867 0.969238 5.30847 0.969238 10.699C0.969238 17.4743 10.755 29.0479 10.755 29.0479C10.755 29.0479 20.5215 17.1411 20.5215 10.699C20.5215 5.30847 16.136 0.922867 10.7454 0.922867ZM13.695 13.5614C12.8817 14.3746 11.8136 14.7813 10.7454 14.7813C9.67728 14.7813 8.60886 14.3746 7.79587 13.5614C6.16938 11.9351 6.16938 9.28878 7.79587 7.66229C8.58345 6.87437 9.6311 6.44041 10.7454 6.44041C11.8596 6.44041 12.9071 6.87454 13.695 7.66229C15.3215 9.28878 15.3215 11.9351 13.695 13.5614Z"
            fill="white" />
    </svg>
</svg>