<svg width="30" height="30" viewBox="0 0 30 30" fill="none" xmlns="http://www.w3.org/2000/svg">
<g clip-path="url(#clip0)">
<path d="M27.363 3.57422H2.63646C2.23059 3.57422 1.85061 3.674 1.50684 3.83848L14.9412 17.2728L17.9522 14.379C17.9522 14.379 17.9525 14.3787 17.9525 14.3786C17.9526 14.3785 17.9528 14.3784 17.9528 14.3784L28.4931 3.83871C28.1492 3.67412 27.769 3.57422 27.363 3.57422Z" fill="white"/>
<path d="M29.7363 5.08173L19.8174 15.0001L29.736 24.9187C29.9004 24.5749 30.0002 24.195 30.0002 23.7891V6.21095C30.0002 5.8053 29.9007 5.42538 29.7363 5.08173Z" fill="white"/>
<path d="M0.264258 5.08131C0.0997852 5.42508 0 5.80506 0 6.21094V23.7891C0 24.1947 0.099668 24.5747 0.264023 24.9184L10.1829 15L0.264258 5.08131Z" fill="white"/>
<path d="M18.5745 16.2429L15.563 19.1371C15.3913 19.3087 15.1664 19.3946 14.9416 19.3946C14.7168 19.3946 14.4919 19.3087 14.3202 19.1371L11.4259 16.2428L1.50684 26.1613C1.85066 26.3259 2.23088 26.4258 2.63687 26.4258H27.3634C27.7693 26.4258 28.1493 26.326 28.4931 26.1615L18.5745 16.2429Z" fill="white"/>
</g>
<defs>
<clipPath id="clip0">
<rect width="30" height="30" fill="white"/>
</clipPath>
</defs>
</svg>
